<svg width="120" height="120" viewBox="0 0 120 120" fill="none" xmlns="http://www.w3.org/2000/svg">
<g clip-path="url(#clip0)">
<path d="M120 30.3736V31.938H0V30.3736C0 27.6321 0.402422 24.9054 1.19461 22.2806L3.93656 13.1953C4.4993 11.3306 6.21703 10.0547 8.16492 10.0547H111.835C113.783 10.0547 115.5 11.3306 116.063 13.1951L118.805 22.2804C119.598 24.9056 120 27.6323 120 30.3736Z" fill="#C2C7D5"/>
<path d="M118.805 22.2806L116.063 13.1953C115.501 11.3306 113.783 10.0547 111.835 10.0547H100.259C102.207 10.0547 103.925 11.3306 104.488 13.1953L107.23 22.2806C108.022 24.9052 108.424 27.6319 108.424 30.3736V31.938H120V30.3736C120 27.6323 119.598 24.9056 118.805 22.2806Z" fill="#C8CDDA"/>
<path d="M114.449 109.945H5.55094C2.48531 109.945 0 107.46 0 104.394V29.7956C0 26.7297 2.48531 24.2446 5.55094 24.2446H114.449C117.515 24.2446 120 26.7299 120 29.7956V104.394C120 107.46 117.515 109.945 114.449 109.945Z" fill="#EBEDF2"/>
<path d="M114.449 24.2444H107.699V102.465C107.699 103.772 106.639 104.831 105.333 104.831H5.55094C2.48531 104.831 0 102.346 0 99.28V104.394C0 107.46 2.48531 109.945 5.55094 109.945H102.147H114.449C117.515 109.945 120 107.46 120 104.394V99.28V29.7956C120 26.7295 117.515 24.2444 114.449 24.2444Z" fill="#D0D4DE"/>
<path d="M79.6477 100.045C97.2932 100.045 111.598 85.7408 111.598 68.0953C111.598 50.4498 97.2932 36.1453 79.6477 36.1453C62.0022 36.1453 47.6978 50.4498 47.6978 68.0953C47.6978 85.7408 62.0022 100.045 79.6477 100.045Z" fill="#4D5C80"/>
<path d="M34.5436 36.145H10.6212C9.39612 36.145 8.40308 37.1381 8.40308 38.3631V62.2856C8.40308 63.5107 9.39612 64.5037 10.6212 64.5037H34.5436C35.7687 64.5037 36.7617 63.5107 36.7617 62.2856V38.3631C36.7617 37.1381 35.7687 36.145 34.5436 36.145Z" fill="#4285F4"/>
<path d="M30.8921 83.72H14.2728C13.7283 83.72 13.2099 83.9527 12.848 84.3598L8.88448 88.8188C8.5744 89.1678 8.40308 89.6183 8.40308 90.0851V98.2651C8.40308 99.3179 9.25644 100.171 10.3092 100.171H34.8558C35.9086 100.171 36.762 99.3179 36.762 98.2651V90.0851C36.762 89.6183 36.5907 89.1678 36.2806 88.8188L32.3171 84.3598C31.955 83.9529 31.4365 83.72 30.8921 83.72Z" fill="#C2C7D5"/>
<path d="M17.379 88.3994C16.3937 88.3994 15.5952 89.1982 15.5952 90.1832V94.6828C15.5952 95.6681 16.394 96.4668 17.379 96.4668C18.3641 96.4668 19.1629 95.6681 19.1629 94.6828V90.1832C19.1631 89.1979 18.3644 88.3994 17.379 88.3994Z" fill="white"/>
<path d="M27.7855 88.3994C26.8002 88.3994 26.0017 89.1982 26.0017 90.1832V94.6828C26.0017 95.6681 26.8005 96.4668 27.7855 96.4668C28.7706 96.4668 29.5694 95.6681 29.5694 94.6828V90.1832C29.5694 89.1979 28.7706 88.3994 27.7855 88.3994Z" fill="white"/>
<path d="M111.597 66.3102H103.136C102.265 54.7412 93.001 45.4768 81.432 44.6063V36.1447C81.432 35.1594 80.6335 34.3608 79.6482 34.3608C78.6628 34.3608 77.8641 35.1596 77.8641 36.1447V44.6063C66.2951 45.4768 57.0307 54.7409 56.1603 66.3102H47.6986C46.7133 66.3102 45.9148 67.1089 45.9148 68.0942C45.9148 69.0795 46.7135 69.878 47.6986 69.878H56.1603C57.0307 81.4473 66.2951 90.7114 77.8641 91.5819V100.044C77.8641 101.029 78.6626 101.827 79.6482 101.827C80.6337 101.827 81.432 101.029 81.432 100.044V91.5819C93.0012 90.7114 102.265 81.4473 103.136 69.878H111.597C112.583 69.878 113.381 69.0793 113.381 68.0942C113.381 67.1089 112.583 66.3102 111.597 66.3102ZM77.8639 48.1911V55.5167C72.2834 56.3047 67.8582 60.7297 67.0702 66.3104H59.7446C60.5982 56.7106 68.2643 49.0447 77.8639 48.1911ZM77.8639 87.9973C68.2643 87.1437 60.5982 79.4776 59.7446 69.878H67.0704C67.8584 75.4585 72.2834 79.8837 77.8641 80.6717V87.9973H77.8639ZM79.6479 77.2316C74.6096 77.2316 70.5106 73.1326 70.5106 68.0942C70.5106 63.0559 74.6098 58.9569 79.6479 58.9569C84.6863 58.9569 88.7853 63.0559 88.7853 68.0942C88.7853 73.1328 84.6861 77.2316 79.6479 77.2316ZM81.4318 87.9973V80.6717C87.0122 79.8837 91.4375 75.4587 92.2254 69.878H99.5511C98.6972 79.4776 91.0313 87.1437 81.4318 87.9973ZM92.2254 66.3102C91.4375 60.7297 87.0122 56.3044 81.4318 55.5165V48.1908C91.0313 49.0444 98.6972 56.7106 99.5508 66.3102H92.2254Z" fill="#DFEAEF"/>
<path d="M28.0648 49.2356C27.772 48.6068 27.1411 48.2046 26.4476 48.2046H22.5823L27.4395 42.6365C28.0842 41.8917 28.0029 40.765 27.2581 40.1203C26.513 39.4755 25.3863 39.5571 24.7418 40.3017L17.3681 48.8212C16.9113 49.3493 16.8042 50.0953 17.0946 50.7302C17.3848 51.3654 18.019 51.7725 18.7172 51.7725H22.5825L17.352 58.0315C16.7177 58.7854 16.815 59.9109 17.569 60.5449C17.9035 60.8261 18.311 60.9635 18.7163 60.9635C19.2246 60.9635 19.7297 60.7474 20.0824 60.3279L27.8128 51.1366C28.2593 50.606 28.3578 49.8644 28.0648 49.2356Z" fill="white"/>
<path d="M111.597 66.3101H107.698V69.878H111.597C112.582 69.878 113.381 69.0792 113.381 68.0941C113.381 67.1088 112.582 66.3101 111.597 66.3101Z" fill="#BFCFD6"/>
</g>
<defs>
<clipPath id="clip0">
<rect width="120" height="120" fill="white"/>
</clipPath>
</defs>
</svg>
